name C:\Users\u0101727\Documents\MyRepositories\upper-imu-dc\Results\main_mocap_tracking\Case_6\kinematics.mot
datacolumns 15
datarows 22
range 5.00000000 5.21000000
endheader 
time	ground_thorax_rot_x	ground_thorax_rot_y	ground_thorax_rot_z	clav_prot	clav_elev	scapula_abduction	scapula_elevation	scapula_upward_rot	scapula_winging	plane_elv	shoulder_elv	axial_rot	elbow_flexion	pro_sup	
          5.00000000	          1.39310380	         -8.28452129	        -10.07395789	        -23.30981039	          2.66034099	          1.06468015	         -4.00610277	         37.31926864	         -2.40900004	         68.92049707	         47.02174666	        -25.20505674	          0.00780480	         34.31725437	
          5.01000000	          1.41528892	         -8.16186292	        -10.02012675	        -23.26269904	          2.43203999	          0.72887299	         -4.07401188	         36.69725924	         -2.22586327	         68.75663305	         46.64475234	        -25.04288839	          0.01128493	         34.31665771	
          5.02000000	          1.43734205	         -8.04176933	         -9.96728376	        -23.22438221	          2.19919390	          0.38536365	         -4.14474418	         36.08074146	         -2.04005140	         68.59210984	         46.27974218	        -24.93349830	          0.01460106	         34.31608954	
          5.03000000	          1.45917209	         -7.92533803	         -9.91574950	        -23.19127362	          1.96663926	          0.04266481	         -4.21542514	         35.47439058	         -1.85385828	         68.42511724	         45.92227930	        -24.85877516	          0.01735405	         34.31556688	
          5.04000000	          1.48056100	         -7.81382332	         -9.86586130	        -23.15791400	          1.73754280	         -0.28711338	         -4.28429322	         34.88275710	         -1.66924945	         68.24922632	         45.56672809	        -24.79118052	          0.01950313	         34.31506931	
          5.05000000	          1.50117658	         -7.70853137	         -9.81796146	        -23.11797647	          1.51267931	         -0.59085838	         -4.35106433	         34.30892689	         -1.48734756	         68.05419633	         45.20812919	        -24.70679776	          0.02151052	         34.31454602	
          5.06000000	          1.52063559	         -7.61063135	         -9.77237090	        -23.06568858	          1.29080444	         -0.85745129	         -4.41664254	         33.75398033	         -1.30835649	         67.82883218	         44.84340449	        -24.59187107	          0.02423240	         34.31391898	
          5.07000000	          1.53859430	         -7.52092718	         -9.72935692	        -22.99733431	          1.06961554	         -1.08055531	         -4.48251035	         33.21710329	         -1.13179016	         67.56498625	         44.47186916	        -24.44305775	          0.02847205	         34.31312101	
          5.08000000	          1.55482805	         -7.43968362	         -9.68910543	        -22.91223367	          0.84683558	         -1.26012979	         -4.55008574	         32.69621165	         -0.95685790	         67.26081777	         44.09495333	        -24.26368257	          0.03443883	         34.31215781	
          5.09000000	          1.56927142	         -7.36657773	         -9.65170338	        -22.81262419	          0.62125729	         -1.40172035	         -4.62011692	         32.18896853	         -0.78294319	         66.92175681	         43.71502253	        -24.05594694	          0.04147710	         34.31112112	
          5.10000000	          1.58200858	         -7.30077974	         -9.61713672	        -22.70270050	          0.39321149	         -1.51430051	         -4.69241586	         31.69357044	         -0.60989684	         66.55878193	         43.33411271	        -23.81622448	          0.04825175	         34.31014582	
          5.11000000	          1.59321546	         -7.24113770	         -9.58530885	        -22.58745008	          0.16395912	         -1.60811580	         -4.76621763	         31.20866496	         -0.43785100	         66.18451055	         42.95359885	        -23.54154646	          0.05330789	         34.30936149	
          5.12000000	          1.60307544	         -7.18640958	         -9.55607411	        -22.47161117	         -0.06559698	         -1.69304405	         -4.84092787	         30.73261441	         -0.26669349	         65.80859331	         42.57469633	        -23.24194327	          0.05572670	         34.30885449	
          5.13000000	          1.61171167	         -7.13544837	         -9.52927064	        -22.35894273	         -0.29593955	         -1.77744029	         -4.91673042	         30.26294441	         -0.09565135	         65.43461877	         42.19888847	        -22.94564439	          0.05555583	         34.30863588	
          5.14000000	          1.61917440	         -7.08726322	         -9.50473691	        -22.25203625	         -0.52898609	         -1.86763232	         -4.99465453	         29.79656907	          0.07667217	         65.06014225	         41.82770687	        -22.69197234	          0.05378335	         34.30863505	
          5.15000000	          1.62548902	         -7.04095765	         -9.48230774	        -22.15266088	         -0.76704567	         -1.96817001	         -5.07599973	         29.33067626	          0.25178605	         64.67972208	         41.46201736	        -22.51680103	          0.05184728	         34.30873506	
          5.16000000	          1.63073168	         -6.99562099	         -9.46179936	        -22.06229861	         -1.01122499	         -2.08250785	         -5.16138507	         28.86368232	          0.43059816	         64.28920397	         41.10132851	        -22.43842902	          0.05095156	         34.30883418	
          5.17000000	          1.63508542	         -6.95026484	         -9.44299946	        -21.98244764	         -1.26009266	         -2.21358283	         -5.24987655	         28.39566907	          0.61285842	         63.88903696	         40.74359122	        -22.44959470	          0.05157222	         34.30889079	
          5.18000000	          1.63884447	         -6.90385551	         -9.42567508	        -21.91458365	         -1.50934852	         -2.36408099	         -5.33867862	         27.92803769	          0.79705696	         63.48517453	         40.38571620	        -22.51893561	          0.05339100	         34.30892614	
          5.19000000	          1.64235640	         -6.85544926	         -9.40960345	        -21.85987017	         -1.75283626	         -2.53627829	         -5.42369192	         27.46264039	          0.98086462	         63.08715958	         40.02451894	        -22.60123657	          0.05564025	         34.30899822	
          5.20000000	          1.64591704	         -6.80441373	         -9.39461706	        -21.81847195	         -1.98430044	         -2.73083744	         -5.50063913	         27.00113859	          1.16178266	         62.70386205	         39.65726006	        -22.65025293	          0.05765082	         34.30915513	
          5.21000000	          1.64966034	         -6.75066473	         -9.38064442	        -21.78858789	         -2.19887270	         -2.94475044	         -5.56610743	         26.54500253	          1.33758931	         62.33863399	         39.28147007	        -22.62896978	          0.05927689	         34.30939443	
